<svg width="500" height="333" viewBox="0 0 500 333" fill="none" xmlns="http://www.w3.org/2000/svg">
<path d="M229.136 228.428C229.136 226.666 229.136 226.34 229.113 225.97C229.093 225.575 229 225.39 228.618 225.309C228.525 225.287 228.331 225.275 228.171 225.275C228.043 225.275 227.977 225.251 227.977 225.17C227.977 225.089 228.057 225.069 228.231 225.069C228.846 225.069 229.575 225.11 229.922 225.11C230.203 225.11 230.932 225.076 231.346 225.076C231.52 225.076 231.6 225.103 231.6 225.183C231.6 225.264 231.534 225.291 231.42 225.291C231.293 225.291 231.226 225.304 231.086 225.324C230.778 225.385 230.684 225.579 230.658 225.988C230.638 226.357 230.638 226.686 230.638 228.45V230.073C230.638 231.757 230.972 232.461 231.54 232.924C232.062 233.353 232.597 233.4 232.984 233.4C233.493 233.4 234.121 233.239 234.582 232.777C235.218 232.139 235.251 231.093 235.251 229.899V228.449C235.251 226.685 235.251 226.361 235.231 225.992C235.211 225.596 235.117 225.41 234.736 225.328C234.643 225.306 234.449 225.294 234.322 225.294C234.195 225.294 234.128 225.271 234.128 225.189C234.128 225.108 234.208 225.082 234.375 225.082C234.963 225.082 235.692 225.118 235.699 225.118C235.839 225.118 236.568 225.084 237.016 225.084C237.177 225.084 237.257 225.106 237.257 225.187C237.257 225.269 237.19 225.295 237.049 225.295C236.922 225.295 236.856 225.308 236.715 225.328C236.401 225.389 236.314 225.587 236.287 225.992C236.267 226.361 236.267 226.689 236.267 228.451V229.69C236.267 230.978 236.14 232.346 235.171 233.178C234.348 233.882 233.519 234.009 232.764 234.009C232.155 234.009 231.045 233.976 230.203 233.211C229.615 232.675 229.173 231.816 229.173 230.139V228.442L229.136 228.428ZM243.75 228.938H243.808C244.201 228.508 245.888 226.78 246.222 226.387C246.546 226.004 246.8 225.715 246.8 225.517C246.8 225.389 246.754 225.309 246.639 225.286C246.535 225.263 246.488 225.239 246.488 225.169C246.488 225.089 246.546 225.065 246.673 225.065C246.915 225.065 247.55 225.1 247.863 225.1C248.22 225.1 248.856 225.065 249.213 225.065C249.33 225.065 249.411 225.088 249.411 225.169C249.411 225.251 249.35 225.274 249.237 225.274C249.07 225.274 248.782 225.32 248.561 225.401C248.2 225.54 247.806 225.784 247.311 226.271C246.95 226.618 245.205 228.357 244.817 228.773C245.232 229.318 247.492 231.764 247.946 232.194C248.454 232.68 248.976 233.201 249.598 233.445C249.945 233.584 250.173 233.619 250.313 233.619C250.393 233.619 250.46 233.641 250.46 233.711C250.46 233.791 250.4 233.828 250.179 233.828H249.177C248.829 233.828 248.622 233.828 248.381 233.804C247.752 233.748 247.445 233.492 246.943 233.051C246.435 232.599 244.155 229.921 243.915 229.586L243.788 229.411H243.727V230.466C243.727 231.532 243.727 232.448 243.761 232.948C243.788 233.27 243.888 233.526 244.175 233.573C244.336 233.594 244.59 233.614 244.744 233.614C244.837 233.614 244.891 233.647 244.891 233.701C244.891 233.781 244.797 233.815 244.67 233.815C244.022 233.815 243.293 233.775 243.005 233.775C242.738 233.775 242.016 233.808 241.548 233.808C241.401 233.808 241.32 233.775 241.32 233.694C241.32 233.634 241.367 233.6 241.501 233.6C241.675 233.6 241.815 233.573 241.916 233.553C242.143 233.506 242.203 233.245 242.25 232.909C242.303 232.42 242.303 231.507 242.303 230.441V228.402C242.303 226.638 242.303 226.309 242.277 225.94C242.25 225.544 242.156 225.357 241.775 225.276C241.682 225.249 241.488 225.242 241.32 225.242C241.193 225.242 241.127 225.216 241.127 225.135C241.127 225.055 241.207 225.028 241.381 225.028C241.989 225.028 242.718 225.061 242.999 225.061C243.273 225.061 244.002 225.021 244.396 225.021C244.556 225.021 244.637 225.041 244.637 225.122C244.637 225.202 244.57 225.222 244.476 225.222C244.363 225.222 244.289 225.236 244.155 225.256C243.841 225.31 243.747 225.511 243.727 225.913C243.701 226.282 243.701 226.611 243.701 228.368V228.878L243.75 228.938ZM254.31 228.428C254.31 226.666 254.31 226.34 254.287 225.97C254.264 225.575 254.172 225.39 253.791 225.309C253.697 225.287 253.501 225.275 253.339 225.275C253.212 225.275 253.143 225.251 253.143 225.17C253.143 225.089 253.224 225.069 253.397 225.069C254.01 225.069 254.737 225.11 254.98 225.11C255.368 225.11 256.25 225.076 256.605 225.076C257.333 225.076 258.102 225.15 258.731 225.579C259.052 225.801 259.513 226.391 259.513 227.169C259.513 228.028 259.152 228.819 257.989 229.765C259.012 231.066 259.814 232.099 260.496 232.817C261.138 233.494 261.612 233.575 261.786 233.608C261.913 233.635 262.014 233.649 262.107 233.649C262.201 233.649 262.241 233.682 262.241 233.736C262.241 233.83 262.161 233.857 262.02 233.857H260.917C260.269 233.857 259.981 233.803 259.68 233.635C259.185 233.374 258.744 232.83 258.096 231.938C257.634 231.301 257.099 230.516 256.952 230.342C256.892 230.275 256.825 230.261 256.738 230.261L255.735 230.241C255.675 230.241 255.642 230.261 255.642 230.335V230.496C255.642 231.569 255.642 232.488 255.695 232.978C255.729 233.313 255.796 233.568 256.143 233.615C256.317 233.635 256.571 233.662 256.712 233.662C256.805 233.662 256.845 233.696 256.845 233.749C256.845 233.83 256.765 233.87 256.611 233.87C255.936 233.87 255.08 233.836 254.913 233.836C254.692 233.836 253.964 233.87 253.502 233.87C253.349 233.87 253.268 233.836 253.268 233.756C253.268 233.702 253.315 233.669 253.449 233.669C253.623 233.669 253.763 233.642 253.863 233.622C254.091 233.575 254.151 233.32 254.198 232.985C254.251 232.495 254.251 231.583 254.251 230.516V228.449L254.31 228.428ZM255.674 229.343C255.674 229.47 255.697 229.516 255.778 229.553C256.02 229.633 256.366 229.667 256.655 229.667C257.117 229.667 257.267 229.623 257.475 229.47C257.823 229.215 258.157 228.683 258.157 227.732C258.157 226.086 257.074 225.611 256.392 225.611C256.105 225.611 255.897 225.623 255.784 225.658C255.703 225.68 255.683 225.726 255.683 225.82V229.343H255.674ZM267.087 230.804C267.028 230.804 267.007 230.827 266.983 230.895L266.359 232.554C266.243 232.842 266.185 233.117 266.185 233.258C266.185 233.466 266.289 233.614 266.646 233.614H266.82C266.959 233.614 266.994 233.634 266.994 233.701C266.994 233.795 266.924 233.815 266.797 233.815C266.428 233.815 265.931 233.775 265.573 233.775C265.445 233.775 264.81 233.808 264.209 233.808C264.059 233.808 263.99 233.781 263.99 233.694C263.99 233.62 264.037 233.6 264.129 233.6C264.233 233.6 264.394 233.587 264.487 233.573C265.019 233.5 265.238 233.111 265.47 232.527L268.369 225.249C268.507 224.914 268.577 224.786 268.692 224.786C268.796 224.786 268.866 224.887 268.982 225.155C269.263 225.793 271.108 230.521 271.85 232.279C272.291 233.319 272.626 233.486 272.866 233.54C273.04 233.573 273.214 233.587 273.354 233.587C273.448 233.587 273.508 233.594 273.508 233.674C273.508 233.768 273.408 233.795 272.98 233.795C272.565 233.795 271.723 233.795 270.8 233.768C270.593 233.755 270.453 233.755 270.453 233.674C270.453 233.6 270.499 233.58 270.613 233.567C270.693 233.547 270.774 233.439 270.72 233.298L269.797 230.843C269.777 230.783 269.744 230.763 269.684 230.763H267.11L267.087 230.804ZM269.444 230.224C269.501 230.224 269.513 230.189 269.501 230.154L268.462 227.296C268.45 227.249 268.438 227.196 268.403 227.196C268.368 227.196 268.346 227.256 268.334 227.303L267.271 230.154C267.257 230.201 267.271 230.234 267.316 230.234H269.444V230.224ZM278.015 228.428C278.015 226.666 278.015 226.34 277.993 225.97C277.966 225.575 277.853 225.378 277.599 225.32C277.472 225.286 277.318 225.275 277.177 225.275C277.057 225.275 276.99 225.251 276.99 225.158C276.99 225.088 277.084 225.064 277.264 225.064C277.699 225.064 278.428 225.1 278.762 225.1C279.049 225.1 279.731 225.065 280.173 225.065C280.32 225.065 280.413 225.088 280.413 225.159C280.413 225.251 280.34 225.275 280.226 225.275C280.106 225.275 280.012 225.287 279.872 225.308C279.564 225.367 279.471 225.564 279.444 225.97C279.417 226.339 279.417 226.666 279.417 228.428V230.467C279.417 231.592 279.417 232.506 279.464 233.005C279.497 233.319 279.578 233.527 279.925 233.574C280.086 233.596 280.34 233.62 280.514 233.62C280.641 233.62 280.701 233.653 280.701 233.712C280.701 233.792 280.607 233.828 280.48 233.828C279.718 233.828 278.989 233.788 278.675 233.788C278.408 233.788 277.679 233.822 277.217 233.822C277.064 233.822 276.983 233.781 276.983 233.701C276.983 233.641 277.03 233.607 277.171 233.607C277.345 233.607 277.485 233.58 277.585 233.56C277.813 233.513 277.886 233.312 277.92 232.976C277.98 232.487 277.98 231.575 277.98 230.448V228.409L278.015 228.428ZM287.638 232.251C287.661 233.157 287.811 233.456 288.042 233.539C288.236 233.606 288.457 233.62 288.637 233.62C288.764 233.62 288.831 233.642 288.831 233.712C288.831 233.806 288.724 233.828 288.564 233.828C287.808 233.828 287.347 233.788 287.126 233.788C287.019 233.788 286.478 233.822 285.876 233.822C285.722 233.822 285.622 233.808 285.622 233.701C285.622 233.627 285.689 233.607 285.802 233.607C285.949 233.607 286.157 233.594 286.317 233.547C286.618 233.453 286.665 233.117 286.671 232.104L286.772 225.242C286.772 225.008 286.812 224.847 286.926 224.847C287.053 224.847 287.153 224.994 287.353 225.202C287.487 225.35 289.246 227.241 290.93 228.918C291.713 229.703 293.271 231.373 293.471 231.561H293.525L293.404 226.356C293.391 225.645 293.291 225.43 293.01 225.31C292.836 225.236 292.555 225.236 292.395 225.236C292.254 225.236 292.214 225.202 292.214 225.128C292.214 225.035 292.341 225.021 292.508 225.021C293.11 225.021 293.665 225.055 293.906 225.055C294.033 225.055 294.467 225.021 295.036 225.021C295.183 225.021 295.296 225.035 295.296 225.122C295.296 225.189 295.229 225.222 295.089 225.222C294.975 225.222 294.882 225.222 294.741 225.256C294.421 225.35 294.327 225.591 294.314 226.242L294.186 233.553C294.186 233.808 294.14 233.916 294.039 233.916C293.912 233.916 293.772 233.788 293.645 233.661C292.916 232.963 291.439 231.447 290.235 230.253C288.971 228.999 287.694 227.55 287.487 227.329H287.447L287.574 232.198L287.638 232.251ZM301.063 228.428C301.063 226.666 301.063 226.34 301.04 225.97C301.013 225.575 300.919 225.39 300.538 225.309C300.445 225.287 300.244 225.275 300.084 225.275C299.956 225.275 299.883 225.251 299.883 225.17C299.883 225.089 299.963 225.069 300.137 225.069C300.745 225.069 301.474 225.11 301.802 225.11C302.17 225.11 304.47 225.11 304.69 225.096C304.911 225.076 305.091 225.056 305.185 225.029C305.238 225.022 305.312 224.989 305.365 224.989C305.419 224.989 305.432 225.036 305.432 225.096C305.432 225.177 305.372 225.318 305.339 225.848C305.325 225.968 305.305 226.478 305.279 226.612C305.265 226.673 305.245 226.74 305.165 226.74C305.085 226.74 305.058 226.686 305.058 226.579C305.058 226.498 305.045 226.304 304.991 226.163C304.911 225.955 304.79 225.814 304.215 225.747C304.015 225.727 302.805 225.7 302.571 225.7C302.511 225.7 302.49 225.74 302.49 225.821V228.752C302.49 228.839 302.497 228.886 302.571 228.886C302.825 228.886 304.149 228.886 304.416 228.866C304.69 228.846 304.864 228.812 304.971 228.692C305.051 228.598 305.098 228.544 305.151 228.544C305.198 228.544 305.232 228.571 305.232 228.638C305.232 228.705 305.172 228.893 305.138 229.483C305.118 229.718 305.091 230.181 305.091 230.261C305.091 230.355 305.091 230.483 304.984 230.483C304.904 230.483 304.877 230.442 304.877 230.382C304.864 230.268 304.864 230.12 304.831 229.966C304.77 229.738 304.61 229.564 304.182 229.517C303.961 229.497 302.818 229.483 302.544 229.483C302.484 229.483 302.477 229.53 302.477 229.604V230.516C302.477 230.912 302.464 231.978 302.477 232.314C302.497 233.112 302.684 233.286 303.861 233.286C304.162 233.286 304.643 233.286 304.944 233.146C305.245 233.011 305.386 232.763 305.466 232.294C305.486 232.166 305.513 232.119 305.593 232.119C305.686 232.119 305.686 232.213 305.686 232.327C305.686 232.595 305.593 233.387 305.533 233.615C305.452 233.917 305.345 233.917 304.904 233.917C303.159 233.917 302.383 233.85 301.708 233.85C301.441 233.85 300.712 233.883 300.251 233.883C300.097 233.883 300.017 233.85 300.017 233.769C300.017 233.716 300.063 233.682 300.204 233.682C300.378 233.682 300.518 233.662 300.618 233.635C300.846 233.588 300.906 233.333 300.953 232.998C301.013 232.508 301.013 231.596 301.013 230.529V228.449L301.063 228.428ZM69.3164 210.883C69.3164 211.706 69.283 211.767 68.8818 211.98C66.7102 213.018 63.4355 213.352 60.8279 213.352C52.6403 213.352 45.3887 209.817 45.3887 201.407C45.3887 196.531 48.162 193.119 51.2028 191.443C54.4121 189.676 57.386 189.462 60.1928 189.462C62.4981 189.462 65.4392 189.828 66.1078 189.95C66.8099 190.073 67.9799 190.255 68.7421 190.285C69.1433 190.315 69.2101 190.44 69.2101 190.651C69.2101 190.986 68.9761 191.838 68.9761 195.641C68.9761 196.131 68.8758 196.279 68.6084 196.279C68.3744 196.279 68.3075 196.124 68.2741 195.883C68.1738 195.179 68.0067 194.206 67.1375 193.354C66.1346 192.375 63.4602 190.973 59.6826 190.973C57.844 190.973 55.4036 191.094 53.0635 192.858C51.1914 194.286 49.988 196.574 49.988 200.323C49.988 206.87 54.5678 211.78 61.6149 211.78C62.484 211.78 63.6541 211.78 64.4564 211.445C64.9579 211.23 65.0916 210.834 65.0916 210.311V207.447C65.0916 205.924 65.0916 204.764 65.0581 203.852C65.0247 202.819 64.7238 202.329 63.6207 202.114C63.3532 202.054 62.7849 202.02 62.3169 202.02C62.016 202.02 61.8154 201.96 61.8154 201.779C61.8154 201.537 62.0495 201.477 62.5175 201.477C64.2558 201.477 66.3619 201.564 67.3648 201.564C68.4011 201.564 70.1729 201.47 71.2761 201.47C71.7107 201.47 71.9447 201.531 71.9447 201.772C71.9447 201.953 71.7441 202.014 71.5101 202.014C71.2427 202.014 71.0087 202.047 70.6075 202.108C69.7049 202.262 69.3706 202.778 69.3372 203.845C69.3037 204.757 69.3037 205.978 69.3037 207.501V210.854L69.3164 210.883ZM128.019 212.378C127.618 212.378 127.117 212.347 126.615 212.254C125.913 212.103 124.944 211.677 123.673 208.933C121.534 204.303 116.188 191.869 115.385 190.193C115.051 189.494 114.851 189.219 114.55 189.219C114.215 189.219 114.015 189.554 113.615 190.438L105.228 209.575C104.56 211.098 103.924 212.133 102.387 212.315C102.34 212.321 102.281 212.326 102.224 212.331C102.117 212.318 102.013 212.311 101.892 212.291C101.39 212.204 100.02 211.989 98.149 210.219C96.1767 208.334 93.872 205.617 90.8968 202.203C94.2732 199.708 95.3095 197.635 95.3095 195.381C95.3095 193.342 93.9723 191.786 93.0363 191.209C91.2311 190.082 88.9926 189.901 86.8872 189.901C85.8509 189.901 83.3115 189.995 82.1756 189.995C81.4735 189.995 79.3741 189.908 77.6024 189.908C77.1009 189.908 76.8669 189.968 76.8669 190.183C76.8669 190.397 77.0675 190.458 77.4352 190.458C77.9032 190.458 78.4715 190.491 78.739 190.552C79.8422 190.766 80.1096 191.249 80.1765 192.289C80.2433 193.261 80.2433 194.113 80.2433 198.748V204.108C80.2433 206.912 80.2433 209.32 80.0762 210.601C79.9491 211.486 79.7753 212.157 79.1067 212.278C78.8125 212.338 78.4114 212.405 77.9099 212.405C77.5088 212.405 77.375 212.499 77.375 212.647C77.375 212.861 77.6091 212.955 78.0436 212.955C79.3808 212.955 81.4869 212.868 82.1221 212.868C82.6235 212.868 85.0973 212.962 87.0363 212.962C87.4709 212.962 87.7049 212.868 87.7049 212.653C87.7049 212.499 87.5712 212.412 87.3037 212.412C86.9026 212.412 86.1671 212.352 85.6657 212.285C84.6628 212.164 84.4622 211.5 84.3619 210.614C84.1947 209.333 84.1947 206.925 84.1947 204.094V203.631C84.1947 203.45 84.295 203.387 84.4622 203.387L87.3706 203.449C87.6046 203.449 87.8052 203.476 87.9723 203.664C88.4069 204.12 89.9447 206.186 91.2819 207.863C93.1539 210.211 94.4243 211.639 95.8618 212.344C96.7309 212.766 97.5667 212.92 99.4388 212.92H102.615C102.722 212.92 102.808 212.914 102.889 212.907C104.166 212.88 105.276 212.827 105.556 212.827C106.593 212.827 108.03 212.914 109.1 212.914C109.468 212.914 109.668 212.853 109.668 212.605C109.668 212.424 109.568 212.364 109.167 212.364H108.665C107.629 212.364 107.328 211.961 107.328 211.418C107.328 211.049 107.495 210.318 107.83 209.56L109.635 205.2C109.702 205.019 109.769 204.952 109.936 204.952H117.391C117.558 204.952 117.658 205.012 117.725 205.166L120.399 211.626C120.566 211.988 120.332 212.263 120.098 212.323C119.764 212.35 119.63 212.411 119.63 212.592C119.63 212.806 120.032 212.806 120.633 212.833C123.308 212.894 125.748 212.894 126.952 212.894C128.188 212.894 128.489 212.833 128.489 212.585C128.489 212.37 128.322 212.337 128.055 212.337L128.019 212.378ZM89.3944 201.468C88.7927 201.865 88.3581 201.984 87.0209 201.984C86.1852 201.984 85.1823 201.894 84.4802 201.681C84.2462 201.59 84.1794 201.468 84.1794 201.134V191.868C84.1794 191.627 84.2462 191.503 84.4802 191.442C84.8145 191.348 85.4163 191.315 86.252 191.315C88.2244 191.315 91.3641 192.563 91.3641 196.889C91.3654 199.384 90.396 200.786 89.3931 201.457L89.3944 201.468ZM116.722 203.448H110.577C110.443 203.448 110.41 203.357 110.443 203.235L113.519 195.739C113.552 195.618 113.619 195.465 113.719 195.465C113.82 195.465 113.853 195.619 113.886 195.739L116.894 203.265C116.927 203.357 116.894 203.448 116.725 203.448H116.722ZM136.84 208.781C136.907 211.157 137.342 211.95 138.01 212.163C138.578 212.346 139.214 212.378 139.748 212.378C140.116 212.378 140.317 212.438 140.317 212.619C140.317 212.863 140.016 212.925 139.548 212.925C137.375 212.925 136.038 212.833 135.403 212.833C135.102 212.833 133.531 212.92 131.792 212.92C131.358 212.92 131.057 212.887 131.057 212.612C131.057 212.431 131.257 212.37 131.592 212.37C132.026 212.37 132.628 212.337 133.096 212.216C133.965 211.968 134.099 211.089 134.132 208.433L134.433 190.389C134.433 189.779 134.533 189.35 134.868 189.35C135.235 189.35 135.536 189.745 136.105 190.295C136.506 190.691 141.587 195.655 146.468 200.075C148.741 202.148 153.254 206.535 153.822 207.024H153.99L153.655 193.341C153.622 191.483 153.321 190.899 152.519 190.597C152.017 190.416 151.215 190.416 150.747 190.416C150.346 190.416 150.212 190.322 150.212 190.141C150.212 189.893 150.58 189.866 151.081 189.866C152.82 189.866 154.424 189.953 155.126 189.953C155.494 189.953 156.764 189.859 158.402 189.859C158.837 189.859 159.171 189.886 159.171 190.134C159.171 190.315 158.971 190.409 158.57 190.409C158.235 190.409 157.968 190.409 157.567 190.497C156.631 190.738 156.363 191.382 156.33 193.086L155.962 212.31C155.962 212.981 155.828 213.256 155.527 213.256C155.16 213.256 154.759 212.92 154.391 212.585C152.291 210.754 148.012 206.763 144.536 203.624C140.892 200.33 137.188 196.52 136.586 195.943H136.486L136.853 208.742L136.84 208.781ZM168.351 198.726C168.351 194.093 168.351 193.241 168.284 192.267C168.217 191.229 167.95 190.742 166.847 190.529C166.579 190.466 166.011 190.438 165.543 190.438C165.175 190.438 164.975 190.377 164.975 190.163C164.975 189.948 165.209 189.894 165.71 189.894C167.482 189.894 169.588 189.988 170.524 189.988C171.56 189.988 173.666 189.901 175.672 189.901C179.851 189.901 185.434 189.901 189.078 193.376C190.749 194.965 192.32 197.494 192.32 201.116C192.32 204.96 190.549 207.884 188.676 209.622C187.139 211.057 183.669 213.217 177.484 213.217C175.05 213.217 172.042 212.855 170.37 212.855C169.601 212.855 167.495 212.949 166.158 212.949C165.724 212.949 165.489 212.861 165.489 212.647C165.489 212.499 165.623 212.405 166.024 212.405C166.526 212.405 166.927 212.345 167.228 212.285C167.896 212.164 168.064 211.5 168.197 210.614C168.364 209.333 168.364 206.925 168.364 204.121V198.755L168.351 198.726ZM172.53 202.077C172.53 205.307 172.563 207.654 172.597 208.233C172.63 208.998 172.697 210.219 172.964 210.554C173.399 211.138 174.703 211.775 177.344 211.775C180.754 211.775 183.027 211.164 185.033 209.581C187.172 207.904 187.841 205.134 187.841 201.995C187.841 198.125 186.069 195.629 184.631 194.382C181.556 191.705 177.752 191.336 175.144 191.336C174.475 191.336 173.239 191.43 172.978 191.551C172.677 191.672 172.577 191.826 172.577 192.161C172.543 193.201 172.543 195.851 172.543 198.259V202.102L172.53 202.077ZM229.133 199.578C229.234 199.578 229.334 199.518 229.334 199.365V198.726C229.334 194.093 229.334 193.241 229.267 192.266C229.2 191.229 228.933 190.742 227.83 190.529C227.562 190.466 226.994 190.438 226.526 190.438C226.158 190.438 225.957 190.377 225.957 190.163C225.957 189.948 226.191 189.894 226.659 189.894C228.465 189.894 230.571 189.988 231.473 189.988C232.276 189.988 234.382 189.901 235.686 189.901C236.154 189.901 236.388 189.961 236.388 190.176C236.388 190.391 236.187 190.451 235.786 190.451C235.518 190.451 235.218 190.484 234.816 190.545C233.914 190.699 233.646 191.216 233.579 192.282C233.513 193.261 233.513 194.113 233.513 198.742V204.108C233.513 206.912 233.513 209.32 233.68 210.628C233.78 211.486 233.981 212.15 234.984 212.271C235.452 212.338 236.187 212.399 236.688 212.399C237.056 212.399 237.223 212.492 237.223 212.64C237.223 212.855 236.956 212.949 236.555 212.949C234.382 212.949 232.276 212.861 231.34 212.861C230.571 212.861 228.465 212.955 227.161 212.955C226.693 212.955 226.459 212.868 226.459 212.653C226.459 212.499 226.593 212.412 226.994 212.412C227.495 212.412 227.896 212.352 228.197 212.285C228.866 212.164 229.033 211.493 229.167 210.614C229.334 209.333 229.334 206.925 229.334 204.121V201.438C229.334 201.317 229.234 201.257 229.133 201.257H216.363C216.263 201.257 216.163 201.291 216.163 201.438V204.121C216.163 206.925 216.163 209.333 216.33 210.648C216.43 211.506 216.631 212.171 217.633 212.291C218.101 212.358 218.837 212.419 219.338 212.419C219.706 212.419 219.873 212.513 219.873 212.667C219.873 212.882 219.606 212.975 219.205 212.975C217.038 212.975 214.932 212.888 213.996 212.888C213.227 212.888 211.121 212.975 209.784 212.975C209.349 212.975 209.115 212.888 209.115 212.674C209.115 212.519 209.249 212.432 209.65 212.432C210.152 212.432 210.553 212.372 210.854 212.305C211.522 212.184 211.69 211.513 211.823 210.634C211.99 209.353 211.99 206.945 211.99 204.141V198.775C211.99 194.14 211.99 193.288 211.924 192.316C211.857 191.276 211.589 190.793 210.486 190.578C210.219 190.511 209.65 190.484 209.182 190.484C208.815 190.484 208.614 190.424 208.614 190.209C208.614 189.995 208.848 189.934 209.316 189.934C211.121 189.934 213.227 190.028 214.13 190.028C214.932 190.028 217.038 189.934 218.342 189.934C218.81 189.934 219.044 189.995 219.044 190.209C219.044 190.424 218.844 190.484 218.442 190.484C218.182 190.484 217.874 190.511 217.48 190.578C216.577 190.733 216.31 191.249 216.243 192.316C216.176 193.288 216.176 194.14 216.176 198.775V199.412C216.176 199.567 216.276 199.627 216.376 199.627H229.14L229.133 199.578ZM241.723 201.407C241.723 196.195 245.501 189.461 255.53 189.461C263.854 189.461 269.035 193.881 269.035 200.859C269.035 207.837 263.686 213.351 255.202 213.351C245.614 213.358 241.736 206.804 241.736 201.411L241.723 201.407ZM264.348 201.984C264.348 195.16 260.036 190.923 254.56 190.923C250.716 190.923 246.343 192.875 246.343 200.462C246.343 206.8 250.187 211.829 256.599 211.829C258.939 211.829 264.355 210.791 264.355 201.985L264.348 201.984ZM281.919 191.594L276.938 191.717C274.999 191.778 274.197 191.93 273.695 192.601C273.361 193.058 273.194 193.424 273.127 193.667C273.06 193.911 272.96 194.033 272.759 194.033C272.525 194.033 272.458 193.885 272.458 193.55C272.458 193.067 273.094 190.29 273.16 190.048C273.261 189.653 273.361 189.472 273.562 189.472C273.829 189.472 274.163 189.78 274.999 189.841C275.969 189.934 277.239 189.995 278.342 189.995H291.574C292.643 189.995 293.379 189.908 293.88 189.841C294.382 189.753 294.649 189.693 294.783 189.693C295.017 189.693 295.05 189.874 295.05 190.33C295.05 190.974 294.95 193.074 294.95 193.865C294.917 194.174 294.85 194.355 294.649 194.355C294.382 194.355 294.315 194.201 294.281 193.744L294.248 193.409C294.181 192.618 293.279 191.766 290.31 191.705L286.098 191.618V204.108C286.098 206.912 286.098 209.32 286.272 210.634C286.372 211.493 286.572 212.157 287.575 212.278C288.043 212.345 288.779 212.405 289.28 212.405C289.648 212.405 289.815 212.499 289.815 212.647C289.815 212.861 289.548 212.955 289.18 212.955C286.974 212.955 284.874 212.868 283.932 212.868C283.163 212.868 281.057 212.962 279.719 212.962C279.285 212.962 279.051 212.868 279.051 212.653C279.051 212.506 279.185 212.412 279.586 212.412C280.087 212.412 280.488 212.352 280.789 212.291C281.458 212.171 281.658 211.5 281.759 210.621C281.926 209.34 281.926 206.932 281.926 204.128V191.624L281.919 191.594ZM302.9 198.726C302.9 194.093 302.9 193.241 302.833 192.266C302.766 191.229 302.498 190.742 301.395 190.529C301.128 190.466 300.56 190.438 300.092 190.438C299.724 190.438 299.523 190.377 299.523 190.163C299.523 189.948 299.757 189.894 300.259 189.894C302.03 189.894 304.137 189.988 305.073 189.988C306.142 189.988 312.795 189.988 313.43 189.961C314.065 189.901 314.6 189.841 314.868 189.78C315.035 189.747 315.235 189.659 315.402 189.659C315.57 189.659 315.603 189.787 315.603 189.934C315.603 190.149 315.436 190.511 315.336 191.913C315.302 192.222 315.235 193.563 315.168 193.926C315.135 194.08 315.068 194.261 314.834 194.261C314.6 194.261 314.533 194.107 314.533 193.832C314.533 193.624 314.5 193.1 314.333 192.738C314.099 192.188 313.764 191.826 312.093 191.645C311.525 191.585 308.014 191.524 307.346 191.524C307.179 191.524 307.112 191.618 307.112 191.833V199.54C307.112 199.755 307.145 199.875 307.346 199.875C308.081 199.875 311.926 199.875 312.695 199.815C313.497 199.755 313.998 199.661 314.299 199.359C314.533 199.117 314.667 198.963 314.834 198.963C314.968 198.963 315.068 199.023 315.068 199.205C315.068 199.392 314.901 199.875 314.801 201.431C314.734 202.042 314.667 203.263 314.667 203.471C314.667 203.719 314.667 204.054 314.366 204.054C314.132 204.054 314.065 203.933 314.065 203.779C314.032 203.477 314.032 203.082 313.932 202.679C313.764 202.069 313.296 201.613 312.066 201.492C311.431 201.431 308.121 201.398 307.319 201.398C307.152 201.398 307.119 201.519 307.119 201.706V204.115C307.119 205.154 307.085 207.958 307.119 208.843C307.185 210.95 307.72 211.406 311.13 211.406C311.999 211.406 313.403 211.406 314.273 211.044C315.142 210.681 315.543 210.044 315.777 208.79C315.844 208.454 315.911 208.334 316.145 208.334C316.412 208.334 316.412 208.582 316.412 208.884C316.412 209.588 316.145 211.654 315.977 212.264C315.743 213.063 315.443 213.063 314.172 213.063C309.131 213.063 306.891 212.882 304.919 212.882C304.15 212.882 302.044 212.975 300.707 212.975C300.272 212.975 300.038 212.888 300.038 212.674C300.038 212.519 300.172 212.432 300.573 212.432C301.074 212.432 301.476 212.365 301.776 212.305C302.445 212.184 302.612 211.513 302.746 210.628C302.913 209.347 302.913 206.938 302.913 204.135V198.775L302.9 198.726ZM331.328 204.087C331.328 207.988 331.328 210.092 332.037 210.64C332.605 211.097 333.475 211.311 336.082 211.311C337.854 211.311 339.158 211.28 339.993 210.458C340.395 210.061 340.796 209.208 340.863 208.629C340.896 208.354 340.963 208.173 341.23 208.173C341.464 208.173 341.498 208.327 341.498 208.696C341.498 209.031 341.264 211.319 340.996 212.204C340.796 212.875 340.629 213.029 338.897 213.029C334.083 213.029 331.877 212.848 329.169 212.848C328.4 212.848 326.294 212.942 324.957 212.942C324.522 212.942 324.288 212.855 324.288 212.64C324.288 212.492 324.422 212.399 324.823 212.399C325.324 212.399 325.726 212.338 326.026 212.278C326.695 212.157 326.862 211.486 326.996 210.608C327.163 209.326 327.163 206.918 327.163 204.115V198.748C327.163 194.12 327.163 193.268 327.096 192.289C327.029 191.256 326.762 190.766 325.659 190.552C325.391 190.491 324.99 190.464 324.556 190.464C324.188 190.464 323.987 190.404 323.987 190.189C323.987 189.975 324.221 189.914 324.723 189.914C326.294 189.914 328.4 190.008 329.303 190.008C330.105 190.008 332.545 189.914 333.849 189.914C334.317 189.914 334.551 189.975 334.551 190.183C334.551 190.391 334.35 190.458 333.949 190.458C333.582 190.458 333.047 190.484 332.646 190.552C331.743 190.706 331.475 191.222 331.409 192.289C331.342 193.268 331.342 194.12 331.342 198.748V204.115L331.328 204.087ZM363.809 200.066H363.976C365.113 198.939 369.993 194.398 370.963 193.362C371.899 192.363 372.634 191.598 372.634 191.081C372.634 190.746 372.501 190.531 372.166 190.471C371.865 190.411 371.732 190.35 371.732 190.169C371.732 189.955 371.899 189.894 372.267 189.894C372.969 189.894 374.807 189.988 375.71 189.988C376.746 189.988 378.585 189.901 379.621 189.901C379.956 189.901 380.19 189.961 380.19 190.176C380.19 190.391 380.022 190.451 379.688 190.451C379.22 190.451 378.384 190.572 377.749 190.786C376.713 191.155 375.576 191.792 374.139 193.074C373.102 193.993 368.061 198.561 366.925 199.654C368.128 201.089 374.68 207.522 375.984 208.649C377.455 209.93 378.959 211.305 380.765 211.942C381.767 212.311 382.436 212.399 382.837 212.399C383.071 212.399 383.272 212.459 383.272 212.647C383.272 212.861 383.105 212.949 382.469 212.949H379.561C378.565 212.949 377.963 212.949 377.261 212.888C375.456 212.734 374.553 212.063 373.116 210.909C371.645 209.722 365.066 202.679 364.357 201.8L363.989 201.344H363.822V204.121C363.822 206.925 363.822 209.333 363.923 210.641C363.989 211.493 364.29 212.164 365.126 212.285C365.594 212.345 366.329 212.412 366.764 212.412C367.032 212.412 367.199 212.506 367.199 212.653C367.199 212.868 366.931 212.962 366.564 212.962C364.698 212.962 362.592 212.875 361.756 212.875C360.987 212.875 358.881 212.969 357.551 212.969C357.116 212.969 356.882 212.875 356.882 212.667C356.882 212.513 357.016 212.425 357.417 212.425C357.919 212.425 358.32 212.365 358.621 212.298C359.289 212.177 359.456 211.506 359.59 210.628C359.757 209.347 359.757 206.938 359.757 204.135V198.775C359.757 194.14 359.757 193.288 359.69 192.316C359.623 191.276 359.356 190.793 358.253 190.578C357.985 190.511 357.417 190.484 356.949 190.484C356.581 190.484 356.381 190.424 356.381 190.209C356.381 189.995 356.615 189.934 357.116 189.934C358.888 189.934 360.994 190.028 361.796 190.028C362.599 190.028 364.705 189.934 365.841 189.934C366.309 189.934 366.543 189.995 366.543 190.209C366.543 190.424 366.343 190.484 366.075 190.484C365.748 190.484 365.541 190.518 365.146 190.578C364.243 190.733 363.976 191.249 363.909 192.316C363.842 193.295 363.842 194.147 363.842 198.775V200.117L363.809 200.066ZM392.478 205.033C392.478 203.387 392.144 202.717 391.709 201.833C391.475 201.346 386.996 194.643 385.826 193.058C384.99 191.93 384.154 191.169 383.519 190.833C383.085 190.621 382.516 190.438 382.115 190.438C381.848 190.438 381.614 190.376 381.614 190.163C381.614 189.982 381.848 189.89 382.249 189.89C382.851 189.89 385.358 189.981 386.461 189.981C387.163 189.981 388.534 189.894 390.038 189.894C390.372 189.894 390.539 189.988 390.539 190.169C390.539 190.357 390.305 190.384 389.804 190.505C389.503 190.565 389.336 190.813 389.336 191.055C389.336 191.296 389.503 191.665 389.737 192.094C390.205 193.013 394.885 200.358 395.42 201.21C395.754 200.479 399.967 193.778 400.435 192.832C400.769 192.161 400.903 191.645 400.903 191.249C400.903 190.947 400.769 190.612 400.201 190.484C399.9 190.424 399.599 190.364 399.599 190.183C399.599 189.968 399.766 189.908 400.167 189.908C401.27 189.908 402.34 190.002 403.31 190.002C404.045 190.002 406.251 189.914 406.887 189.914C407.254 189.914 407.488 189.975 407.488 190.156C407.488 190.37 407.221 190.464 406.853 190.464C406.526 190.464 405.89 190.585 405.389 190.833C404.687 191.142 404.319 191.504 403.584 192.329C402.481 193.55 397.8 200.714 397.199 202.022C396.697 203.122 396.697 204.068 396.697 205.074V207.569C396.697 208.059 396.697 209.34 396.797 210.621C396.864 211.506 397.165 212.177 398.168 212.298C398.636 212.358 399.372 212.425 399.84 212.425C400.207 212.425 400.374 212.519 400.374 212.667C400.374 212.882 400.107 212.975 399.672 212.975C397.566 212.975 395.46 212.888 394.558 212.888C393.722 212.888 391.623 212.982 390.379 212.982C389.918 212.982 389.643 212.922 389.643 212.674C389.643 212.526 389.817 212.432 390.185 212.432C390.653 212.432 391.054 212.372 391.355 212.311C392.024 212.191 392.325 211.52 392.391 210.634C392.492 209.353 392.492 208.079 392.492 207.589V205.087L392.478 205.033ZM414.696 198.726C414.696 194.093 414.696 193.241 414.629 192.266C414.562 191.229 414.228 190.712 413.492 190.558C413.125 190.471 412.69 190.438 412.289 190.438C411.955 190.438 411.754 190.377 411.754 190.136C411.754 189.955 412.021 189.894 412.556 189.894C413.827 189.894 415.933 189.988 416.902 189.988C417.738 189.988 419.71 189.901 420.981 189.901C421.415 189.901 421.683 189.961 421.683 190.149C421.683 190.397 421.482 190.458 421.148 190.458C420.813 190.458 420.546 190.491 420.145 190.552C419.242 190.706 418.975 191.222 418.908 192.289C418.841 193.268 418.841 194.12 418.841 198.748V204.115C418.841 207.073 418.841 209.481 418.975 210.789C419.075 211.614 419.309 212.164 420.312 212.285C420.78 212.345 421.516 212.412 422.017 212.412C422.385 212.412 422.552 212.506 422.552 212.66C422.552 212.875 422.291 212.962 421.923 212.962C419.717 212.962 417.611 212.875 416.708 212.875C415.939 212.875 413.833 212.969 412.496 212.969C412.062 212.969 411.828 212.882 411.828 212.667C411.828 212.519 411.961 212.425 412.362 212.425C412.864 212.425 413.265 212.365 413.566 212.305C414.235 212.184 414.435 211.667 414.535 210.782C414.703 209.501 414.703 207.093 414.703 204.141V198.775L414.696 198.726ZM430.896 192.876C430.134 191.2 429.565 190.864 428.362 190.558C427.861 190.438 427.326 190.438 427.058 190.438C426.757 190.438 426.657 190.35 426.657 190.163C426.657 189.921 427.025 189.894 427.526 189.894C429.298 189.894 431.204 189.988 432.374 189.988C433.209 189.988 434.814 189.901 436.485 189.901C436.887 189.901 437.254 189.961 437.254 190.176C437.254 190.391 437.054 190.451 436.753 190.451C436.218 190.451 435.717 190.484 435.456 190.666C435.222 190.82 435.121 191.035 435.121 191.31C435.121 191.712 435.422 192.564 435.89 193.657L441.64 207.495H441.774C443.212 204.148 447.557 194.335 448.36 192.322C448.527 191.927 448.661 191.471 448.661 191.196C448.661 190.954 448.527 190.706 448.226 190.619C447.825 190.498 447.323 190.464 446.889 190.464C446.588 190.464 446.321 190.438 446.321 190.223C446.321 189.981 446.621 189.921 447.257 189.921C448.928 189.921 450.332 190.015 450.767 190.015C451.335 190.015 452.906 189.921 453.909 189.921C454.344 189.921 454.611 189.981 454.611 190.196C454.611 190.411 454.411 190.471 454.076 190.471C453.742 190.471 453.04 190.471 452.438 190.84C452.004 191.115 451.502 191.632 450.599 193.583C449.296 196.448 448.393 198.098 446.588 201.841C444.448 206.295 442.877 209.615 442.148 211.138C441.279 212.908 441.079 213.391 440.611 213.391C440.183 213.391 439.982 212.969 439.347 211.533L430.889 192.899L430.896 192.876Z" fill="#9A9885"/>
<path d="M188.48 176.687C188.182 176.687 187.91 176.761 187.713 176.882C187.517 176.999 187.396 177.163 187.396 177.346C187.396 177.528 187.516 177.692 187.713 177.811C187.91 177.931 188.181 178.003 188.48 178.003H336.55C336.85 178.003 337.121 177.931 337.316 177.811C337.513 177.691 337.634 177.528 337.634 177.346C337.634 177.164 337.514 176.998 337.316 176.881C337.122 176.762 336.85 176.687 336.549 176.687H188.475L188.48 176.687Z" fill="black"/>
<path d="M394.29 135.948V136.991L379.791 137.443C379.791 137.443 374.821 144.562 370.417 151.284C369.829 152.178 366.877 156.705 365.266 159.574C362.678 164.187 356.169 174.781 362.719 177.179C363.506 177.563 365.13 178.244 364.563 178.88C363.732 179.685 362.418 180.08 361.179 180.08C348.814 180.08 357.344 163.888 362.132 157.603C362.149 157.583 362.137 157.563 362.107 157.596C360.669 159.159 355.167 166.397 349.492 166.397C346.56 166.397 344.927 164.586 344.927 162.305C344.927 155.725 357.438 145.455 352.414 145.455C351.621 145.455 350.366 146.159 348.855 147.112C344.349 149.956 341.834 153.122 339.901 155.711C336.149 160.749 332.562 166.142 332.562 166.142L326.973 166.148L337.166 150.754C334.687 152.934 329.497 154.558 326.97 151.465C326.46 157.328 318.367 166.9 311.853 166.9C306.278 166.9 304.872 161.265 306.337 156.919C302.106 162.338 297.865 166.262 293.771 166.262C291.547 166.262 289.488 164.633 289.488 161.674C289.488 156.979 297.805 149.728 297.805 146.602C297.805 146.153 297.611 145.462 296.876 145.462C295.318 145.462 293.486 146.441 291.42 148.091C287.181 151.727 285.603 154.497 282.26 159.541C280.85 161.668 280.93 161.721 277.921 166.162L272.332 166.155C272.332 166.155 282.494 150.815 283.384 149.46C284.179 148.252 286.172 145.388 283.912 145.388C280.428 145.388 274.384 150.734 269.396 157.469C267.498 160.313 263.626 166.155 263.626 166.155H258.044L268.267 150.721C267.685 150.962 265.244 151.962 263.232 151.955C261.601 151.948 260.076 151.15 260.076 148.856C260.076 146.502 262.115 145.241 263.092 145.006C263.125 145.006 263.118 144.986 263.092 144.986C258.177 145.194 251.344 151.673 244.652 161.701C242.893 164.337 241.696 166.162 241.696 166.162H236.147C236.147 166.162 238.668 162.486 241.563 158.126C241.583 158.093 241.583 158.072 241.543 158.113C241.155 158.475 234.222 166.289 229.949 166.289C226.305 166.289 225.242 162.298 225.877 159.005C225.877 159.005 220.81 166.256 216.056 166.256C212.412 166.256 210.994 162.62 211.295 159.635C211.269 159.575 211.235 159.635 211.168 159.635C210.52 160.796 206.408 166.35 201.393 166.296C190.047 166.296 198.432 144.179 211.59 144.179C215.053 144.179 216.771 145.554 216.771 148.478C217.674 147.103 219.519 144.346 219.519 144.346H225.109C225.109 144.346 219.466 152.812 216.577 157.259C214.538 160.391 213.194 164.765 216.029 164.765C220.696 164.765 225.289 157.594 228.993 151.94C231.734 147.764 234.101 144.293 234.101 144.293H239.697C239.697 144.293 234.422 152.268 230.738 157.909C227.816 161.988 228.104 164.751 230.036 164.751C233.934 164.751 242.887 155.76 247.44 148.771C249.191 146.088 250.382 144.297 250.382 144.297H255.931L251.986 150.132L252.033 150.193C256.172 146.168 260.484 143.841 262.851 143.841C267.778 143.841 267.317 149.039 264.857 150.723C266.1 150.468 268.781 149.958 270.312 147.704L272.539 144.317L278.249 144.31L274.528 149.71L274.548 149.723C278.941 145.33 282.504 144.189 284.784 144.189C290.434 144.189 287.933 149.74 287.933 149.74C287.913 149.77 287.933 149.78 287.967 149.74C288.722 148.747 292.754 144.19 297.561 144.19C300.456 144.19 301.633 145.555 301.653 147.853C301.686 150.898 299.059 154.446 295.435 160.342C294.435 161.966 292.667 164.595 294.78 164.595C299.908 164.595 309.168 151.012 309.415 150.7C312.738 146.394 316.696 143.556 321.804 143.556C324.693 143.556 326.411 145.857 327.066 148.272C329.707 156.012 337.791 149.788 340.365 146.058C340.779 145.461 341.16 144.858 341.515 144.321H347.111L343.293 150.022C344.013 149.399 348.896 144.193 353.757 144.193C356.832 144.193 357.424 146.434 357.424 148.232C357.424 152.283 352.767 157.475 350.898 161.164C349.075 164.763 350.644 165.779 354.516 163.163C359.47 159.816 364.059 153.993 369.422 146.33C371.334 143.6 373.661 140.266 375.419 137.603C369.964 137.67 325.268 138.663 325.268 138.663L322.761 136.195L376.476 136.054C376.476 136.054 381.334 127.83 385.375 127.83C385.615 127.828 385.649 127.83 385.669 127.83C386.411 127.83 386.023 128.222 385.736 128.662L380.842 136.027L394.354 136L394.29 135.948ZM201.631 164.587C207.762 164.587 219.782 145.834 212.769 145.834C207.167 145.834 194.946 164.587 201.631 164.587ZM240.992 134.351C239.339 134.351 237.996 135.697 237.996 137.356C237.996 139.016 239.34 140.361 240.992 140.361C242.647 140.361 243.987 139.016 243.987 137.356C243.987 135.697 242.647 134.351 240.992 134.351V134.351ZM313.222 152.923C309.761 158.082 308.194 163.508 310.013 164.751C311.832 165.996 316.346 162.591 319.808 157.431C323.267 152.274 324.759 146.771 322.939 145.527C321.12 144.281 316.681 147.765 313.223 152.923H313.222ZM151.995 176.179C162.262 171.664 177.859 147.005 180.997 140.216C179.157 140.216 170.744 140.505 170.744 148.366C169.366 148.366 168.02 146.75 168.095 144.818C168.095 141.692 171.289 138.479 182.054 138.479C186.587 131.047 193.674 121.2 198.434 117.887C200.438 116.498 200.48 116.807 199.297 118.229C197.775 120.335 195.563 123.555 193.178 127.586C189.307 133.918 185.235 142.537 180.23 151.143C175.344 158.958 169.987 165.31 164.402 170.099C159.289 174.305 154.109 176.928 150.965 177.625C149.573 177.907 149.782 176.928 151.995 176.197V176.179ZM226.878 103.085C220.567 103.06 214.555 105.414 209.525 109.537C203.229 106.845 190.622 98.9902 177.029 98.9902C160.767 98.9902 150.436 109.384 150.436 120.413C150.436 129.524 158.187 135.606 166.824 135.606C179.609 135.606 181.506 126.423 181.464 125.303C181.464 124.686 181.221 123.455 180.69 123.029C180.397 122.824 179.955 122.852 179.968 123.2C179.968 126.712 173.329 133.809 165.147 133.849C146.313 133.94 154.022 100.572 174.802 100.572C186.195 100.572 198.21 108.175 206.908 112.022C201.385 118.027 195.475 126.108 186.917 143.186C175.21 166.547 159.866 180.912 142.823 180.912C133.402 180.912 123.828 174.801 123.828 159.93C123.828 134.77 157.104 127.868 157.104 153.659C157.104 164.237 149.817 169.784 143.772 169.838C136.919 169.838 135.435 165.605 135.442 161.527C135.442 153.102 139.6 151.418 137.561 151.418C130.08 151.418 128.328 171.287 144.722 171.287C155.199 171.287 161.55 162.01 161.664 152.968C161.771 144.382 156.242 136.004 143.278 136.004C127.098 136.004 118.64 147.796 118.667 159.481C118.693 170.958 126.91 182.327 144.047 182.327C157.82 182.327 166.652 176.458 174.321 169.288C182.758 161.399 187.98 151.029 192.379 140.927C193.957 141.196 197.026 141.639 198.176 141.317C197.721 142.544 197.474 146.019 198.611 146.019C199.052 145.985 198.698 145.12 199.594 143.282C200.744 140.914 202.836 139.868 206.855 137.017C208.633 135.756 207.904 133.851 206.046 133.851C202.422 133.851 200.777 139.559 196.638 139.559C195.422 139.552 193.931 139.304 193.148 139.11C195.863 132.456 202.669 118.651 208.827 113.111C211.528 114.264 220.374 118.651 226.879 118.651C242.217 118.651 244.283 103.116 226.846 103.116L226.878 103.085ZM226.619 104.433C239.516 104.433 240.056 115.827 227.768 115.827C221.59 115.827 215.322 112.245 211.566 110.589C215.661 107.072 221.21 104.446 226.619 104.433V104.433Z" fill="black"/>
</svg>
