<svg width="500" height="333" viewBox="0 0 500 333" fill="none" xmlns="http://www.w3.org/2000/svg">
<path d="M159.111 254.14V247.754H152.482V254.14H149.883V239.609H152.482V245.409H159.111V239.609H161.711V254.14" fill="#1E4A6E"/>
<path d="M171.459 241.5C168.73 241.5 167.105 243.78 167.105 246.843C167.105 249.775 168.795 252.186 171.459 252.186C174.189 252.186 175.749 249.84 175.749 246.843C175.814 243.911 174.124 241.5 171.459 241.5ZM171.459 254.401C167.69 254.401 164.505 251.534 164.505 246.843C164.505 242.151 167.755 239.284 171.459 239.284C175.164 239.284 178.413 242.086 178.413 246.843C178.413 251.534 175.164 254.401 171.459 254.401Z" fill="#1E4A6E"/>
<path d="M186.732 241.89V254.14H184.133V241.89H179.583V239.609H191.152L191.477 241.89" fill="#1E4A6E"/>
<path d="M194.336 254.14V239.609H203.305V241.89H196.871V245.409H202.005L202.395 247.689H196.871V251.86H203.5V254.14" fill="#1E4A6E"/>
<path d="M207.009 254.14V239.609H209.544V251.925H215.068L215.393 254.14" fill="#1E4A6E"/>
<path d="M222.217 254.271C220.462 254.271 218.707 253.814 217.212 253.163L217.602 250.882C218.967 251.599 220.852 252.12 222.347 252.12C223.971 252.12 225.141 251.404 225.141 250.166C225.141 248.927 224.361 248.471 222.282 247.82C219.227 246.777 217.732 245.8 217.732 243.584C217.732 241.108 219.812 239.414 222.607 239.414C224.231 239.414 225.726 239.74 226.766 240.261L226.376 242.672C225.076 241.955 223.776 241.564 222.477 241.564C221.047 241.564 220.072 242.346 220.072 243.259C220.072 244.366 220.852 244.757 223.126 245.539C226.181 246.582 227.481 247.624 227.481 249.905C227.481 252.576 225.336 254.271 222.217 254.271Z" fill="#1E4A6E"/>
<path d="M241.064 247.429C239.829 248.08 239.114 248.992 239.114 250.165C239.114 251.534 240.089 252.446 241.649 252.446C242.754 252.446 243.793 251.99 244.638 251.077L241.064 247.429ZM247.888 254.27L245.938 252.381C244.768 253.684 243.209 254.466 241.454 254.466C238.334 254.466 236.645 252.967 236.645 250.491C236.645 248.471 237.944 247.103 239.829 246.125C238.919 245.083 238.464 244.236 238.464 242.932C238.464 240.978 239.894 239.349 242.494 239.349C243.923 239.349 245.223 239.74 246.263 240.261L245.873 242.541C244.768 241.825 243.663 241.434 242.624 241.434C241.454 241.434 240.934 242.085 240.934 242.998L242.169 245.278L245.873 249.123C246.328 248.145 246.588 247.038 246.718 245.669L248.798 246.125C248.538 247.819 248.083 249.318 247.368 250.621L250.487 253.749L247.888 254.27Z" fill="#1E4A6E"/>
<path d="M264.2 241.826H262.315V246.517H264.2C266.085 246.517 267.125 245.67 267.125 244.106C267.125 242.607 266.085 241.826 264.2 241.826ZM268.1 254.271L263.875 248.472H262.315V254.076H259.716V239.545H264.2C267.515 239.545 269.659 241.109 269.659 243.976C269.659 246.126 268.489 247.494 266.605 248.081L270.699 253.62L268.1 254.271Z" fill="#1E4A6E"/>
<path d="M273.689 254.14V239.609H282.723V241.89H276.289V245.409H281.423L281.813 247.689H276.289V251.86H282.918V254.14" fill="#1E4A6E"/>
<path d="M290.716 254.271C288.961 254.271 287.207 253.814 285.712 253.163L286.102 250.882C287.467 251.599 289.351 252.12 290.846 252.12C292.471 252.12 293.641 251.404 293.641 250.166C293.641 248.927 292.861 248.471 290.781 247.82C287.727 246.777 286.232 245.8 286.232 243.584C286.232 241.108 288.312 239.414 291.106 239.414C292.796 239.414 294.226 239.74 295.33 240.261L294.941 242.672C293.641 241.955 292.341 241.564 291.041 241.564C289.611 241.564 288.636 242.346 288.636 243.259C288.636 244.366 289.416 244.757 291.691 245.539C294.746 246.582 296.045 247.624 296.045 249.905C296.045 252.576 293.901 254.271 290.716 254.271Z" fill="#1E4A6E"/>
<path d="M305.144 241.5C302.415 241.5 300.79 243.78 300.79 246.843C300.79 249.775 302.48 252.186 305.144 252.186C307.874 252.186 309.434 249.84 309.434 246.843C309.499 243.911 307.809 241.5 305.144 241.5ZM305.274 254.401C301.57 254.401 298.32 251.534 298.32 246.843C298.32 242.151 301.57 239.284 305.274 239.284C309.044 239.284 312.228 242.086 312.228 246.843C312.228 251.534 308.979 254.401 305.274 254.401Z" fill="#1E4A6E"/>
<path d="M319.702 241.826H317.817V246.517H319.702C321.522 246.517 322.627 245.67 322.627 244.106C322.627 242.607 321.587 241.826 319.702 241.826ZM323.601 254.271L319.377 248.472H317.817V254.076H315.283V239.545H319.767C323.082 239.545 325.226 241.109 325.226 243.976C325.226 246.126 324.056 247.494 322.172 248.081L326.266 253.62L323.601 254.271Z" fill="#1E4A6E"/>
<path d="M334.52 241.89V254.14H331.92V241.89H327.371V239.609H338.939L339.264 241.89" fill="#1E4A6E"/>
<path d="M345.633 254.271C343.878 254.271 342.188 253.814 340.693 253.163L341.083 250.882C342.448 251.599 344.333 252.12 345.828 252.12C347.452 252.12 348.622 251.404 348.622 250.166C348.622 248.927 347.842 248.471 345.763 247.82C342.708 246.777 341.148 245.8 341.148 243.584C341.148 241.108 343.228 239.414 346.023 239.414C347.647 239.414 349.142 239.74 350.182 240.261L349.792 242.672C348.492 241.955 347.192 241.564 345.893 241.564C344.463 241.564 343.488 242.346 343.488 243.259C343.488 244.366 344.268 244.757 346.542 245.539C349.597 246.582 350.897 247.624 350.897 249.905C350.962 252.576 348.817 254.271 345.633 254.271Z" fill="#1E4A6E"/>
<path d="M247.238 78.5332C221.567 78.5332 202.59 94.9536 202.59 112.547C202.59 121.604 207.724 129.293 214.093 134.571L214.613 134.245C209.544 130.01 204.929 123.429 204.929 114.371C206.294 95.1491 229.951 84.3325 250.812 84.3325C265.695 84.3325 292.406 87.786 292.406 112.677C292.406 125.709 278.563 142.586 249.448 142.586C234.63 142.586 223.062 134.571 223.062 123.103C223.062 113.198 230.796 106.096 242.299 106.096C245.483 106.096 248.473 106.878 250.748 107.464C245.938 106.552 238.529 107.855 234.63 110.918V127.729H248.798V108.572C251.462 109.028 253.607 110.071 255.037 110.983V127.729H258.741C255.817 131.052 250.423 133.007 245.678 132.29V133.007C259.196 134.05 264.98 127.664 264.98 120.366C264.98 111.83 256.987 106.878 248.863 105.835V93.1291H234.695V105.901C225.466 107.79 216.433 113.264 216.433 122.321C216.433 136.33 235.93 144.997 252.827 144.997C278.628 144.997 298.515 132.486 298.515 114.958C298.515 93.7156 269.79 78.5332 247.238 78.5332ZM266.93 120.822C266.93 114.632 262.706 109.68 255.037 107.269V93.1291H269.27V127.664H264.785C266.345 125.449 266.93 122.973 266.93 120.822Z" fill="#1E4A6E"/>
<path d="M185.302 165.717V215.304L189.137 215.826V218.758H170.095V215.826L174.189 215.304V192.759H149.883V215.304L153.652 215.826V218.758H135V215.826L138.704 215.304V165.717L135 165.196V162.329H153.652V165.196L149.883 165.717V186.895H174.189V165.717L170.095 165.196V162.329H189.137V165.196" fill="#1E4A6E"/>
<path d="M211.818 165.978C211.818 169.757 209.283 172.559 205.774 172.559C202.199 172.559 199.73 170.018 199.73 166.238C199.73 162.655 202.199 159.853 205.774 159.853C209.283 159.788 211.818 162.589 211.818 165.978ZM210.518 215.63L214.093 216.151V218.692H196.61V216.151L200.185 215.63V181.681L196.61 181.16V178.619H210.518V215.63Z" fill="#1E4A6E"/>
<path d="M221.697 216.152L225.206 215.631V163.763L221.697 163.242V160.636H235.605V215.631L239.179 216.152V218.759H221.697" fill="#1E4A6E"/>
<path d="M260.301 178.619H269.724V182.398H260.301V206.247C260.301 212.437 261.601 214.392 267.125 214.392C269.204 214.392 270.959 214.392 272.649 214.001V216.737C267.58 218.562 263.355 219.279 259.781 219.279C251.787 219.279 249.902 215.63 249.902 208.592V182.398H242.624V178.619H250.227V170.213L260.366 167.15" fill="#1E4A6E"/>
<path d="M305.079 198.819C305.079 186.113 301.31 180.574 295.266 180.574C289.352 180.574 285.647 185.852 285.647 198.819C285.647 211.525 289.417 216.803 295.266 216.803C301.57 216.869 305.079 211.786 305.079 198.819ZM316.518 199.08C316.518 211.591 308.134 219.931 295.006 219.931C282.268 219.931 274.209 214.458 274.209 199.08C274.209 186.178 282.593 177.512 295.721 177.512C308.654 177.512 316.518 185.266 316.518 199.08Z" fill="#1E4A6E"/>
<path d="M365 216.151V218.692H347.518V216.151L351.027 215.63V192.824C351.027 186.503 348.753 183.636 343.943 183.636C341.734 183.636 338.224 185.2 335.69 186.959V215.565L339.264 216.086V218.627H321.717V216.086L325.291 215.565V181.877L321.717 181.356V178.619H335.69V184.157C340.044 180.639 344.203 177.837 350.117 177.837C357.981 177.837 361.491 182.463 361.491 191.586V215.695" fill="#1E4A6E"/>
<path d="M295.331 139.458H294.031V139.002H297.15V139.458H295.98V144.084H295.331V139.458ZM300.79 143.172L302.414 139.002H303.194V144.084H302.609V140.24L301.115 144.084H300.53L298.97 140.24V144.084H298.385V139.002H299.23L300.79 143.172Z" fill="#1E4A6E"/>
</svg>
