<svg width="500" height="333" viewBox="0 0 500 333" fill="none" xmlns="http://www.w3.org/2000/svg">
<path d="M215.263 227.559V244.628C215.263 249.477 212.852 252.064 208.471 252.064C204.065 252.064 201.64 249.402 201.64 244.421V227.577H195.578V244.628C195.578 253.018 200.249 257.826 208.391 257.826C216.611 257.826 221.325 252.926 221.325 244.382V227.559H215.263ZM237.564 227.559L224.4 257.361H230.587L233.128 251.589L233.31 251.156H246.986L249.668 257.361H256.024L242.981 227.735L242.864 227.559L237.564 227.559ZM273.604 227.559L266.821 248.065L260.217 227.574H253.766L264.179 257.379H269.199L275.996 237.8L282.788 257.379H287.85L298.237 227.574H291.952L285.334 248.065L278.549 227.559H273.604ZM332.921 227.559V257.335H338.903V227.559H332.921ZM161.357 227.56V257.378H167.42V245.268H181.11V257.378H187.175V227.56H181.11V239.589H167.42V227.56H161.357ZM303.126 227.581V257.357H325.692V251.928H309.107V244.545H320.135V239.114H309.107V233.01H325.114V227.581H303.126ZM240.133 235.105L244.455 245.088H244.44L244.734 245.776H235.564L235.854 245.088H235.849L240.133 235.105Z" fill="#232527"/>
<path d="M236.858 75.1752C234.453 75.3874 227.954 76.8635 227.954 76.8635H227.951C213.303 80.6415 209.841 93.9056 209.841 93.9056C209.126 96.1361 208.801 98.4219 208.705 100.575V103.507C208.9 108.035 209.909 111.417 209.909 111.417C214.802 133.066 238.86 168.639 244.03 176.112C244.397 176.475 244.691 176.344 244.691 176.344C245.249 176.19 245.205 175.656 245.205 175.656L245.216 175.659C253.18 96.2293 236.858 75.1753 236.858 75.1753L236.858 75.1752ZM263.172 75.1752C263.172 75.1752 246.779 96.2404 254.749 175.716H254.759C254.821 176.22 255.18 176.326 255.18 176.326C255.713 176.532 255.987 176.021 255.987 176.021L255.989 176.026C261.292 168.362 285.213 132.983 290.084 111.416C290.084 111.416 292.726 100.978 290.176 93.9052C290.176 93.9052 286.555 80.4357 271.888 76.8762C271.888 76.8762 267.661 75.8055 263.172 75.1748L263.172 75.1752ZM187.559 99.02C187.559 99.02 173.602 112.238 172.908 126.252H172.913V128.375C172.924 128.535 172.932 128.697 172.942 128.86C173.543 140.16 182.063 146.848 182.063 146.848C195.789 160.197 229.025 177.05 236.749 180.875C236.857 180.915 237.256 181.045 237.49 180.75C237.49 180.75 237.612 180.657 237.668 180.491V180.139C237.662 180.119 237.651 180.099 237.641 180.077H237.644C216.494 133.972 187.559 99.0195 187.559 99.0195L187.559 99.02ZM312.437 99.02C312.437 99.02 283.59 133.863 262.449 179.874L262.457 179.871C262.457 179.871 262.207 180.405 262.611 180.75C262.611 180.75 262.731 180.84 262.898 180.877H263.191C263.243 180.862 263.299 180.842 263.355 180.804V180.809C271.288 176.88 304.267 160.137 317.929 146.85C317.929 146.85 326.58 139.917 327.033 128.787C328.032 113.327 312.438 99.0195 312.438 99.0195L312.437 99.02ZM338.402 144.792C338.402 144.792 291.371 169.976 267.055 186.343L267.057 186.346L267.063 186.351C267.063 186.351 266.622 186.639 266.776 187.156C266.776 187.156 267.006 187.573 267.342 187.573V187.576C276.052 187.591 309.011 187.628 309.837 187.474C309.837 187.474 314.099 187.304 319.365 185.285C319.365 185.285 331.088 181.566 337.177 168.285C337.177 168.285 339.96 162.732 340 154.93V154.599C339.98 151.59 339.555 148.259 338.402 144.792H338.402ZM161.581 144.91C157.302 158.128 163.063 168.779 163.072 168.796C169.075 181.453 180.535 185.288 180.535 185.288C185.825 187.457 191.117 187.607 191.117 187.607C191.944 187.758 224.024 187.622 232.62 187.582C232.984 187.579 233.184 187.214 233.184 187.214C233.209 187.174 233.232 187.134 233.242 187.097V186.766C233.17 186.545 232.98 186.389 232.98 186.389L232.986 186.386C208.681 170.024 161.582 144.91 161.582 144.91L161.581 144.91ZM231.638 191.646L176.313 193.581C182.313 204.254 192.417 212.548 202.943 210.001C210.207 208.189 226.663 196.735 232.095 192.865L232.077 192.85C232.499 192.471 232.349 192.167 232.349 192.167C232.21 191.672 231.638 191.672 231.638 191.672L231.638 191.646ZM268.282 191.686L268.276 191.706C268.276 191.706 267.791 191.768 267.655 192.131C267.655 192.131 267.537 192.627 267.864 192.873L267.858 192.878C273.155 196.668 289.212 207.87 296.948 210.045C296.948 210.045 298.12 210.443 300.084 210.514H301.264C306.447 210.333 315.476 207.676 323.68 193.61L268.282 191.686Z" fill="#CF0A2C"/>
</svg>
