<svg width="500" height="333" viewBox="0 0 500 333" fill="none" xmlns="http://www.w3.org/2000/svg">
<path d="M421.151 187.072C418.333 190.024 415.137 191.785 411.129 192.588C408.423 193.133 406.054 193.248 403.304 192.964C399.66 192.591 396.652 191.424 393.718 189.238C391.319 187.456 389.601 185.528 388.101 182.945C386.943 180.946 386.268 179.075 385.893 176.797C385.367 173.638 385.506 170.857 386.34 167.767C388.248 160.739 393.554 155.758 400.707 154.275C404.792 153.429 408.423 153.516 412.462 154.555C415.337 155.295 417.622 156.542 419.797 158.559C421.17 159.827 422.145 161.102 423.009 162.752C424.033 164.703 424.446 166.599 424.329 168.796H411.572C411.295 167.093 410.475 165.736 409.098 164.692C407.314 163.337 405.013 163.229 403.106 164.404C401.803 165.212 400.947 166.31 400.485 167.767C399.387 171.239 399.338 174.469 400.317 177.974C400.735 179.448 401.435 180.604 402.555 181.656C403.83 182.869 405.42 183.367 407.165 183.111C408.247 182.954 409.126 182.483 409.854 181.667C410.618 180.825 411.055 179.921 411.255 178.804C411.395 178.017 411.474 177.351 411.516 176.554H424.966C425.234 180.594 423.948 184.142 421.151 187.072" fill="#0056A8"/>
<path d="M369.732 149.68H383.684V139.861H369.732V149.68Z" fill="#0056A8"/>
<path d="M369.732 191.897H383.684V154.727H369.732V191.897Z" fill="#0056A8"/>
<path d="M340.831 158.65C342.666 157.051 344.416 155.923 346.63 154.903C350.233 153.244 353.837 152.975 357.65 154.084C361.739 155.278 364.685 158.143 365.975 162.192C366.595 164.136 366.863 165.863 366.863 167.903V191.893H352.045V170.318C352.045 169.597 351.958 168.987 351.741 168.295C351.362 167.057 350.54 166.145 349.339 165.64C346.713 164.529 343.726 165.513 342.285 167.964C341.682 168.987 341.408 169.994 341.408 171.182V191.893H327.056V154.72H340.52L340.831 158.65" fill="#0056A8"/>
<path d="M175.815 158.65C177.65 157.051 179.4 155.923 181.609 154.903C185.215 153.244 188.821 152.975 192.632 154.084C196.723 155.278 199.669 158.143 200.959 162.192C201.579 164.136 201.847 165.863 201.847 167.903V191.893H187.029V170.318C187.029 169.597 186.937 168.987 186.727 168.295C186.343 167.057 185.522 166.145 184.319 165.64C181.694 164.529 178.708 165.513 177.269 167.964C176.664 168.987 176.39 169.994 176.39 171.182V191.893H162.04V154.72H175.502L175.815 158.65" fill="#0056A8"/>
<path d="M263.755 178.23C264.824 178.41 265.718 178.633 266.744 178.974C267.602 179.254 268.191 179.916 268.379 180.792C268.583 181.748 268.313 182.656 267.623 183.345C266.922 184.051 266.124 184.458 265.141 184.611C263.825 184.821 262.659 184.713 261.405 184.259C260.798 184.043 260.317 183.769 259.819 183.36C259.178 182.821 258.765 182.204 258.516 181.407C258.308 180.73 258.225 180.132 258.237 179.424H244.573V180.217C244.573 181.498 244.773 182.584 245.225 183.782C245.91 185.584 246.849 186.978 248.267 188.293C250.116 190.017 252.047 191.092 254.48 191.785C259.532 193.219 264.081 193.503 269.273 192.71C271.708 192.339 273.717 191.686 275.908 190.555C276.872 190.057 277.645 189.542 278.477 188.846C282.168 185.758 283.537 181.046 282.062 176.476C281.504 174.754 280.623 173.426 279.25 172.239C277.368 170.614 275.463 169.579 273.07 168.884C272.547 168.733 272.099 168.606 271.572 168.462C268.645 167.652 266.131 167.117 263.125 166.672C262.32 166.553 261.643 166.424 260.849 166.239C260.483 166.152 260.179 166.05 259.838 165.896C258.997 165.518 258.625 164.532 259.004 163.696C259.025 163.652 259.044 163.612 259.068 163.569C259.519 162.765 260.187 162.242 261.069 161.985C262.629 161.535 264.066 161.574 265.596 162.093C267.065 162.592 267.987 163.934 267.923 165.48H281.089C281.076 163.868 280.829 162.507 280.284 160.993C279.727 159.457 278.879 158.289 277.592 157.277C276.472 156.391 275.41 155.788 274.075 155.273C272.776 154.77 271.631 154.456 270.258 154.217C266.995 153.657 264.187 153.494 260.883 153.689C258.995 153.797 257.403 154.03 255.555 154.461C253.069 155.044 251.066 156 249.056 157.57C247.349 158.904 246.232 160.462 245.516 162.502C245.191 163.427 245.035 164.248 244.993 165.221C244.918 166.852 245.154 168.241 245.761 169.757C246.847 172.472 248.775 174.396 251.504 175.479C252.886 176.028 254.097 176.389 255.555 176.686C258.429 177.278 260.862 177.738 263.755 178.23" fill="#0056A8"/>
<path d="M100.425 175.866H90.8503V163.67H97.0725C98.254 163.67 99.2544 163.642 100.436 163.576C102.073 163.487 103.433 162.758 104.408 161.445C104.925 160.747 105.217 160.043 105.34 159.182C105.443 158.457 105.457 157.838 105.385 157.112C105.119 154.398 102.863 152.362 100.127 152.362H90.8503V191.895H75V139.856H100.908C101.939 139.856 102.809 139.875 103.838 139.932C110.711 140.299 116.373 144.102 119.286 150.316C120.801 153.55 121.316 156.659 120.927 160.209C120.105 167.682 114.858 173.495 107.486 175.105C105.042 175.639 102.926 175.866 100.425 175.866" fill="#0056A8"/>
<path d="M308.509 154.012C307.033 153.779 305.773 153.683 304.281 153.683C302.787 153.683 301.529 153.779 300.051 154.012C295.768 154.68 292.299 156.396 289.171 159.386C285.825 162.591 283.992 166.382 283.573 170.986C283.318 173.813 283.537 176.25 284.301 178.984C285.472 183.179 287.671 186.419 291.14 189.066C293.425 190.815 295.696 191.863 298.51 192.474C300.509 192.911 302.235 193.091 304.281 193.091C306.325 193.091 308.053 192.911 310.054 192.474C312.866 191.863 315.137 190.815 317.421 189.066L309.405 180.362C308.13 183.183 304.809 184.44 301.976 183.17C300.671 182.585 299.745 181.664 299.155 180.362C298.612 179.16 298.295 178.082 298.099 176.776C297.703 174.165 297.748 171.898 298.261 169.305C298.523 167.958 298.974 166.86 299.728 165.712C301.375 163.208 304.747 162.508 307.265 164.147C307.923 164.578 308.404 165.057 308.832 165.712C309.588 166.86 310.039 167.958 310.301 169.305C310.808 171.898 310.859 174.165 310.463 176.776C310.265 178.082 309.948 179.16 309.405 180.362L317.421 189.066C320.893 186.419 323.092 183.179 324.261 178.984C325.025 176.25 325.242 173.813 324.989 170.986C324.57 166.382 322.741 162.591 319.393 159.386C316.263 156.392 312.796 154.68 308.509 154.012" fill="#0056A8"/>
<path d="M243.042 188.981C242.834 185.919 242.717 183.325 242.655 180.252C242.574 176.214 242.525 172.809 242.497 168.773C242.48 166.595 242.24 164.756 241.693 162.648C240.975 159.885 239.351 157.785 236.85 156.39C235.339 155.548 233.953 155.03 232.263 154.666C226.881 153.518 222.132 153.423 216.71 154.36C215.186 154.623 213.926 154.988 212.495 155.578C209.192 156.939 206.916 159.42 205.856 162.82C205.449 164.12 205.341 165.299 205.496 166.654C205.526 166.902 205.588 167.112 205.701 167.339L218.256 167.645C218.224 166.847 218.328 166.173 218.598 165.424C219.009 164.283 219.818 163.473 220.963 163.057C222.647 162.44 224.269 162.417 225.977 162.973C227.098 163.339 227.895 164.145 228.244 165.267C228.463 165.969 228.354 166.661 227.929 167.261C227.558 167.791 227.1 168.147 226.494 168.378C226.119 168.52 225.8 168.624 225.417 168.726C223.671 169.195 222.181 169.517 220.399 169.812C218.988 170.043 217.8 170.262 216.402 170.546C214.501 170.921 212.913 171.337 211.071 171.931C209.385 172.473 208.057 173.245 206.754 174.439C205.06 175.983 204.091 177.813 203.768 180.085C203.555 181.599 203.604 182.918 203.94 184.409C204.819 188.286 207.521 191.153 211.354 192.264C215.603 193.492 219.59 193.291 223.692 191.641C225.689 190.841 227.209 189.732 228.582 188.082L227.697 181.692C227.064 182.668 226.279 183.334 225.217 183.8C224.22 184.239 223.32 184.47 222.236 184.581C221.334 184.67 220.55 184.604 219.676 184.36C218.965 184.165 218.409 183.834 217.904 183.3C217.479 182.842 217.225 182.35 217.096 181.739C216.898 180.802 217.206 179.9 217.941 179.279C218.432 178.861 218.914 178.581 219.516 178.361C220.974 177.826 222.219 177.425 223.712 177.003C225.517 176.496 227.011 175.947 228.714 175.167C228.882 176.526 228.874 177.69 228.684 179.043C228.546 180.036 228.244 180.852 227.697 181.692L228.582 188.082C228.857 188.99 229.11 189.749 229.421 190.637C229.597 191.136 229.827 191.522 230.176 191.91H244.007C243.417 190.987 243.117 190.076 243.042 188.981" fill="#0056A8"/>
<path d="M159.278 188.981C159.07 185.919 158.953 183.325 158.891 180.252C158.808 176.214 158.761 172.809 158.734 168.773C158.719 166.595 158.478 164.756 157.929 162.648C157.212 159.885 155.589 157.785 153.086 156.39C151.575 155.548 150.189 155.03 148.499 154.666C143.117 153.518 138.368 153.423 132.944 154.36C131.424 154.623 130.16 154.988 128.732 155.578C125.428 156.939 123.152 159.42 122.092 162.82C121.688 164.12 121.577 165.299 121.735 166.654C121.762 166.902 121.824 167.112 121.937 167.339L134.492 167.645C134.462 166.847 134.564 166.173 134.835 165.424C135.245 164.283 136.054 163.473 137.2 163.057C138.886 162.44 140.505 162.417 142.211 162.973C143.335 163.339 144.133 164.145 144.484 165.267C144.699 165.969 144.59 166.661 144.165 167.261C143.792 167.791 143.335 168.147 142.73 168.378C142.355 168.52 142.036 168.624 141.651 168.726C139.907 169.195 138.415 169.517 136.635 169.812C135.226 170.043 134.036 170.262 132.636 170.546C130.737 170.921 129.151 171.337 127.305 171.931C125.624 172.473 124.295 173.245 122.99 174.439C121.296 175.983 120.33 177.813 120.004 180.085C119.789 181.599 119.84 182.918 120.178 184.409C121.053 188.286 123.759 191.153 127.588 192.264C131.842 193.492 135.824 193.291 139.929 191.641C141.923 190.841 143.447 189.732 144.82 188.082L143.935 181.692C143.303 182.668 142.515 183.334 141.451 183.8C140.456 184.239 139.554 184.47 138.475 184.581C137.568 184.67 136.789 184.604 135.912 184.36C135.201 184.165 134.645 183.834 134.143 183.3C133.715 182.842 133.462 182.35 133.332 181.739C133.136 180.802 133.442 179.9 134.177 179.279C134.666 178.861 135.148 178.581 135.752 178.361C137.21 177.826 138.458 177.425 139.95 177.003C141.755 176.496 143.247 175.947 144.952 175.167C145.118 176.526 145.11 177.69 144.92 179.043C144.782 180.036 144.478 180.852 143.935 181.692L144.82 188.082C145.093 188.99 145.346 189.749 145.659 190.637C145.834 191.136 146.063 191.522 146.413 191.91H160.243C159.653 190.987 159.355 190.076 159.278 188.981" fill="#0056A8"/>
</svg>
