<svg width="500" height="333" viewBox="0 0 500 333" fill="none" xmlns="http://www.w3.org/2000/svg">
<path d="M164.582 163.767L167.5 153.557H181.039C188.167 153.557 192.473 150.297 194.482 143.443L195.582 139.656C198.118 130.931 194.004 125.515 185.01 125.515H126.167L115.211 163.767H164.582ZM184.914 135.773L182.618 144.114H170.227L172.571 135.821H184.914V135.773ZM200.606 163.767L204.241 157.344H220.985V163.767H231.988V125.467H210.365L187.832 163.767H200.606ZM216.441 135.869H220.985V148.044H209.504L216.441 135.869ZM276.91 143.059L277.915 139.608C280.45 130.788 276.336 125.467 267.342 125.467H246.436L235.481 163.767H246.914L249.928 153.221H257.057L260.31 163.767H272.078L268.634 152.502C272.748 151.256 275.475 148.092 276.91 143.059ZM254.856 135.773H267.199L264.902 144.066H252.512L254.856 135.773ZM287.626 163.767L298.581 125.467H287.1L276.192 163.767H287.626ZM217.445 169.184L204.528 184.475L199.218 169.184H149.656L138.749 207.532H188.167L194.195 186.345L198.214 198.185H205.581L216.249 185.578L209.934 207.532H221.368L232.275 169.184H217.445ZM247.632 169.184L225.052 207.484H237.825L241.461 201.061H258.205V207.484H269.208V169.232L247.632 169.184ZM246.771 191.857L253.66 179.682H258.205V191.857H246.771ZM307.958 180.161L311.068 169.184H276.288L273.179 180.161H285.76L277.915 207.532H289.348L297.194 180.161H307.958ZM323.219 180.161H340.585L343.742 169.232H325.228C318.1 169.232 313.795 172.492 311.785 179.346L307.719 193.343C305.136 202.307 309.298 207.484 318.292 207.484H332.691L335.801 196.555H318.435L323.219 180.161ZM373.355 169.184L369.432 182.894H356.324L360.199 169.184H348.765L337.858 207.532H349.292L353.167 193.823H366.275L362.4 207.532H373.881L384.789 169.184H373.355Z" fill="#F6FF00"/>
</svg>
